<?xml version="1.0" standalone="no"?>
<!DOCTYPE svg PUBLIC "-//W3C//DTD SVG 20010904//EN"
 "http://www.w3.org/TR/2001/REC-SVG-20010904/DTD/svg10.dtd">
<svg version="1.0" xmlns="http://www.w3.org/2000/svg"
 width="16.000000pt" height="16.000000pt" viewBox="0 0 16.000000 16.000000"
 preserveAspectRatio="xMidYMid meet">
<metadata>
Created by potrace 1.11, written by Peter Selinger 2001-2013
</metadata>
<g transform="translate(0.000000,16.000000) scale(0.008000,-0.008000)"
fill="#000000" stroke="none">
<path d="M1360 1130 c0 -441 3 -671 10 -675 15 -9 323 -116 338 -117 6 -1 12
-6 12 -11 0 -6 3 -8 6 -4 3 3 42 -7 85 -23 43 -16 80 -26 80 -22 1 4 2 348 3
764 l1 758 -267 -1 -268 0 0 -669z"/>
<path d="M741 1010 c-1 -193 2 -349 6 -348 5 1 40 -9 78 -22 39 -13 75 -25 80
-26 33 -6 125 -47 125 -55 0 -5 5 -9 11 -9 5 0 8 4 5 9 -5 8 82 -21 177 -58
15 -6 27 -8 27 -5 0 4 7 1 15 -6 8 -7 16 -9 16 -4 1 5 2 204 3 442 l1 432
-271 0 -272 0 -1 -350z"/>
<path d="M136 1012 c1 -65 2 -122 3 -128 0 -6 15 -14 32 -18 18 -3 38 -14 46
-24 8 -9 11 -11 7 -3 -4 9 -2 12 7 8 8 -3 33 -12 57 -19 23 -7 42 -16 42 -21
0 -4 4 -5 10 -2 5 3 20 0 32 -7 13 -7 26 -13 31 -14 4 -1 8 -2 10 -4 1 -1 9
-3 17 -5 17 -3 76 -23 173 -58 l67 -25 0 23 c0 13 6 26 13 28 10 4 10 6 0 6
-7 1 -13 8 -13 17 0 8 5 12 11 9 6 -4 5 2 -2 13 -10 16 -10 23 0 35 8 11 9 17
1 22 -12 7 -9 42 4 64 6 10 5 12 -2 7 -7 -4 -12 -1 -12 8 0 9 6 16 13 16 7 0
8 3 2 8 -6 4 -12 22 -14 41 -2 25 0 31 11 26 10 -6 11 -5 1 6 -17 18 -17 63 0
53 9 -6 9 -4 0 7 -16 16 -17 33 -1 23 6 -4 9 -3 5 2 -3 5 -37 9 -76 8 -51 -2
-69 1 -65 9 4 8 2 7 -7 0 -7 -7 -17 -13 -22 -13 -4 0 -5 6 -1 13 6 10 4 10 -7
0 -7 -7 -17 -13 -22 -13 -4 0 -5 6 -1 13 6 10 4 10 -7 0 -7 -7 -17 -13 -22
-13 -4 0 -5 6 -1 13 6 9 4 9 -7 1 -19 -15 -231 -15 -222 0 3 6 0 5 -8 -1 -16
-16 -33 -17 -24 -2 4 6 -2 5 -13 -2 -15 -9 -24 -10 -34 -2 -11 9 -13 -9 -12
-105z"/>
<path d="M0 543 l0 -343 998 1 c890 1 992 3 949 16 -29 9 -45 18 -41 25 4 7 2
8 -5 4 -15 -9 -53 3 -46 15 3 5 -1 6 -9 3 -13 -5 -236 64 -311 96 -18 8 -63
23 -75 25 -3 0 -32 11 -65 24 -33 12 -67 24 -75 26 -8 2 -28 9 -45 15 -16 6
-37 13 -45 15 -14 4 -116 39 -150 52 -8 4 -17 7 -20 8 -62 19 -89 29 -86 34 2
3 -6 7 -17 7 -26 2 -48 7 -62 15 -5 3 -69 25 -142 49 -72 24 -129 48 -126 54
3 5 1 6 -5 2 -13 -8 -203 53 -214 69 -4 5 -8 7 -8 3 0 -4 -13 -2 -30 3 -18 7
-27 16 -24 22 5 8 3 8 -6 0 -14 -13 -47 -1 -62 21 -5 7 -8 6 -8 -3 0 -9 -4
-10 -12 -4 -7 6 -34 16 -60 24 -32 9 -43 16 -35 22 8 6 6 7 -5 3 -19 -6 -120
23 -114 33 2 3 -7 6 -20 6 l-24 0 0 -342z"/>
</g>
</svg>
